<svg width="44" height="30" viewBox="0 0 44 30" fill="none" xmlns="http://www.w3.org/2000/svg">
<path d="M6.85944 9.06H5.64744L1.12344 2.244V9.06H-0.0045625V0.275999H1.19544L5.71944 7.08V0.275999H6.85944V9.06ZM12.8698 8.16C13.5018 8.16 14.0578 8.016 14.5378 7.728C15.0258 7.432 15.4058 7.02 15.6778 6.492C15.9498 5.964 16.0858 5.356 16.0858 4.668C16.0858 3.98 15.9498 3.372 15.6778 2.844C15.4058 2.316 15.0258 1.908 14.5378 1.62C14.0578 1.324 13.5018 1.176 12.8698 1.176C12.2378 1.176 11.6778 1.324 11.1898 1.62C10.7018 1.908 10.3218 2.316 10.0498 2.844C9.78584 3.372 9.65384 3.98 9.65384 4.668C9.65384 5.356 9.78584 5.964 10.0498 6.492C10.3218 7.02 10.7018 7.432 11.1898 7.728C11.6778 8.016 12.2378 8.16 12.8698 8.16ZM12.8698 0.18C13.7098 0.18 14.4618 0.372 15.1258 0.756C15.7898 1.132 16.3058 1.66 16.6738 2.34C17.0418 3.02 17.2258 3.796 17.2258 4.668C17.2258 5.54 17.0418 6.316 16.6738 6.996C16.3058 7.676 15.7898 8.208 15.1258 8.592C14.4618 8.968 13.7098 9.156 12.8698 9.156C12.0298 9.156 11.2778 8.968 10.6138 8.592C9.94984 8.208 9.43384 7.676 9.06584 6.996C8.69784 6.316 8.51384 5.54 8.51384 4.668C8.51384 3.796 8.69784 3.02 9.06584 2.34C9.43384 1.66 9.94984 1.132 10.6138 0.756C11.2778 0.372 12.0298 0.18 12.8698 0.18ZM24.2647 1.272H21.7327V9.06H20.5927V1.272H18.0607V0.275999H24.2647V1.272ZM27.0579 0.275999V9.06H25.9299V0.275999H27.0579ZM33.0481 9.156C32.2081 9.156 31.4601 8.968 30.8041 8.592C30.1481 8.208 29.6361 7.676 29.2681 6.996C28.9001 6.316 28.7161 5.54 28.7161 4.668C28.7161 3.796 28.9001 3.02 29.2681 2.34C29.6361 1.66 30.1481 1.132 30.8041 0.756C31.4601 0.372 32.2081 0.18 33.0481 0.18C33.6401 0.18 34.1961 0.296 34.7161 0.528C35.2441 0.76 35.7081 1.08 36.1081 1.488L35.3521 2.196C35.0721 1.876 34.7281 1.628 34.3201 1.452C33.9121 1.268 33.4841 1.176 33.0361 1.176C32.4121 1.176 31.8601 1.324 31.3801 1.62C30.9001 1.908 30.5241 2.316 30.2521 2.844C29.9881 3.372 29.8561 3.98 29.8561 4.668C29.8561 5.356 29.9881 5.964 30.2521 6.492C30.5241 7.02 30.9001 7.432 31.3801 7.728C31.8601 8.016 32.4121 8.16 33.0361 8.16C33.4921 8.16 33.9161 8.072 34.3081 7.896C34.7001 7.712 35.0361 7.464 35.3161 7.152L36.1081 7.848C35.7001 8.264 35.2361 8.588 34.7161 8.82C34.2041 9.052 33.6481 9.164 33.0481 9.156ZM43.2375 1.272H38.7615V4.044H42.6135V5.028H38.7615V8.064H43.2375V9.06H37.6335V0.275999H43.2375V1.272Z" fill="white"/>
<path d="M5.70744 25.988C6.45944 25.988 7.11544 26.068 7.67544 26.228C8.24344 26.388 8.67944 26.616 8.98344 26.912C9.28744 27.208 9.43944 27.56 9.43944 27.968C9.43944 28.368 9.28744 28.716 8.98344 29.012C8.67944 29.308 8.24344 29.536 7.67544 29.696C7.11544 29.856 6.45944 29.936 5.70744 29.936C4.95544 29.936 4.29944 29.856 3.73944 29.696C3.17944 29.536 2.74744 29.308 2.44344 29.012C2.13944 28.716 1.98744 28.368 1.98744 27.968C1.98744 27.56 2.13944 27.208 2.44344 26.912C2.74744 26.616 3.17944 26.388 3.73944 26.228C4.29944 26.068 4.95544 25.988 5.70744 25.988ZM5.70744 26.888C4.91544 26.888 4.29144 26.984 3.83544 27.176C3.38744 27.36 3.16344 27.624 3.16344 27.968C3.16344 28.304 3.38744 28.564 3.83544 28.748C4.28344 28.932 4.90744 29.024 5.70744 29.024C6.50744 29.024 7.13144 28.932 7.57944 28.748C8.03544 28.564 8.26344 28.304 8.26344 27.968C8.26344 27.624 8.03544 27.36 7.57944 27.176C7.13144 26.984 6.50744 26.888 5.70744 26.888ZM9.35544 19.832V20.732C9.35544 21.3 9.33944 21.792 9.30744 22.208C9.27544 22.616 9.19544 23.064 9.06744 23.552L7.90344 23.42C8.02344 22.948 8.09944 22.524 8.13144 22.148C8.16344 21.764 8.17944 21.308 8.17944 20.78H2.08344V19.832H9.35544ZM4.75944 24.188V22.22H5.92344V24.188H10.5434V25.136H0.967438V24.188H4.75944ZM17.7197 20.372V21.356H15.3317V22.424C15.3317 23.008 15.4477 23.588 15.6797 24.164C15.9117 24.732 16.2357 25.244 16.6517 25.7C17.0757 26.148 17.5557 26.488 18.0917 26.72L17.4317 27.656C16.8237 27.376 16.2877 26.964 15.8237 26.42C15.3597 25.876 15.0037 25.252 14.7557 24.548C14.5077 25.308 14.1477 25.988 13.6757 26.588C13.2117 27.18 12.6757 27.62 12.0677 27.908L11.3957 26.984C11.9237 26.736 12.3957 26.368 12.8117 25.88C13.2357 25.392 13.5637 24.844 13.7957 24.236C14.0277 23.628 14.1437 23.024 14.1437 22.424V21.356H11.7677V20.372H17.7197ZM20.1557 19.316V29.936H18.9797V19.316H20.1557ZM25.616 20.204V21.956C25.616 22.58 25.724 23.2 25.94 23.816C26.156 24.424 26.46 24.972 26.852 25.46C27.252 25.94 27.712 26.308 28.232 26.564L27.512 27.5C26.952 27.204 26.46 26.78 26.036 26.228C25.612 25.676 25.284 25.044 25.052 24.332C24.812 25.1 24.468 25.78 24.02 26.372C23.58 26.956 23.064 27.4 22.472 27.704L21.764 26.744C22.292 26.488 22.76 26.108 23.168 25.604C23.576 25.1 23.892 24.528 24.116 23.888C24.34 23.248 24.452 22.604 24.452 21.956V20.204H25.616ZM30.152 19.316V23.54H31.82V24.524H30.152V29.936H28.964V19.316H30.152ZM40.7003 19.316V22.172H42.2123V23.144H40.7003V26.108H39.5243V19.316H40.7003ZM37.3283 26.216C38.4163 26.216 39.2683 26.38 39.8843 26.708C40.5083 27.036 40.8203 27.488 40.8203 28.064C40.8203 28.648 40.5083 29.104 39.8843 29.432C39.2683 29.76 38.4163 29.924 37.3283 29.924C36.2403 29.924 35.3843 29.76 34.7603 29.432C34.1443 29.104 33.8363 28.648 33.8363 28.064C33.8363 27.488 34.1443 27.036 34.7603 26.708C35.3843 26.38 36.2403 26.216 37.3283 26.216ZM37.3283 27.116C36.5843 27.116 36.0083 27.2 35.6003 27.368C35.2003 27.528 35.0003 27.76 35.0003 28.064C35.0003 28.376 35.2003 28.616 35.6003 28.784C36.0083 28.944 36.5843 29.024 37.3283 29.024C38.0723 29.024 38.6483 28.944 39.0563 28.784C39.4643 28.616 39.6683 28.376 39.6683 28.064C39.6683 27.76 39.4643 27.528 39.0563 27.368C38.6483 27.2 38.0723 27.116 37.3283 27.116ZM34.9763 20.444V19.232H36.1643V20.444H38.6963V21.38H32.4443V20.444H34.9763ZM35.5643 21.848C36.0683 21.848 36.5163 21.928 36.9083 22.088C37.3003 22.24 37.6043 22.46 37.8203 22.748C38.0363 23.028 38.1443 23.352 38.1443 23.72C38.1443 24.296 37.9043 24.756 37.4243 25.1C36.9523 25.444 36.3323 25.616 35.5643 25.616C34.7963 25.616 34.1763 25.444 33.7043 25.1C33.2403 24.756 33.0083 24.296 33.0083 23.72C33.0083 23.16 33.2443 22.708 33.7163 22.364C34.1883 22.02 34.8043 21.848 35.5643 21.848ZM35.5643 22.724C35.1323 22.724 34.7843 22.812 34.5203 22.988C34.2643 23.164 34.1363 23.408 34.1363 23.72C34.1363 24.032 34.2643 24.28 34.5203 24.464C34.7843 24.648 35.1323 24.74 35.5643 24.74C35.9963 24.74 36.3443 24.648 36.6083 24.464C36.8723 24.28 37.0043 24.032 37.0043 23.72C37.0043 23.408 36.8723 23.164 36.6083 22.988C36.3523 22.812 36.0043 22.724 35.5643 22.724Z" fill="#AAAAAA"/>
</svg>
