<svg width="40" height="40" viewBox="0 0 40 40" fill="none" xmlns="http://www.w3.org/2000/svg">
<circle cx="20" cy="20" r="20" fill="white"/>
<path d="M20 30C19.1818 30 18.4002 29.6646 16.8369 28.9939C12.9456 27.3243 11 26.4895 11 25.0853L11 15.7475M20 30C20.8182 30 21.5998 29.6646 23.1631 28.9939C27.0544 27.3243 29 26.4895 29 25.0853L29 15.7475M20 30L20 20.1707M29 15.7475C29 16.3512 28.1984 16.7325 26.5953 17.495L23.6741 18.8844C21.8712 19.7419 20.9697 20.1707 20 20.1707M29 15.7475C29 15.1438 28.1984 14.7625 26.5953 14M11 15.7475C11 16.3512 11.8016 16.7325 13.4047 17.495L16.3259 18.8844C18.1288 19.7419 19.0303 20.1707 20 20.1707M11 15.7475C11 15.1438 11.8016 14.7625 13.4047 14M14.332 21.311L16.3259 22.2594" stroke="#141B34" stroke-width="1.5" stroke-linecap="round" stroke-linejoin="round"/>
<path d="M20 10V12M24 11L22.5 13M16 11L17.5 13" stroke="#141B34" stroke-width="1.5" stroke-linecap="round"/>
</svg>
