<svg width="46" height="30" viewBox="0 0 46 30" fill="none" xmlns="http://www.w3.org/2000/svg">
<path d="M3.42683 4.656C3.93083 4.656 4.33483 4.5 4.63883 4.188C4.95083 3.876 5.10683 3.464 5.10683 2.952C5.10683 2.448 4.95083 2.044 4.63883 1.74C4.33483 1.428 3.93083 1.272 3.42683 1.272H1.43483V4.656H3.42683ZM5.28683 9.06L2.97083 5.652H1.43483V9.06H0.306828V0.275999H3.52283C4.05883 0.275999 4.53083 0.387999 4.93883 0.611999C5.35483 0.836 5.67483 1.152 5.89883 1.56C6.13083 1.968 6.24683 2.436 6.24683 2.964C6.24683 3.556 6.07083 4.08 5.71883 4.536C5.37483 4.992 4.88683 5.316 4.25483 5.508L6.66683 9.06H5.28683ZM13.9465 1.272H9.47052V4.044H13.3225V5.028H9.47052V8.064H13.9465V9.06H8.34252V0.275999H13.9465V1.272ZM19.8272 9.06H18.5192L15.2432 0.275999H16.4552L19.1552 7.512L21.7112 0.275999H22.9232L19.8272 9.06ZM25.6106 0.275999V9.06H24.4826V0.275999H25.6106ZM33.0832 1.272H28.6072V4.044H32.4592V5.028H28.6072V8.064H33.0832V9.06H27.4792V0.275999H33.0832V1.272ZM43.3559 9.06H42.2639L40.1879 2.256L38.2079 9.06H37.1039L34.4639 0.275999H35.6519L37.6559 7.044L39.5879 0.275999H40.7879L42.7559 7.044L44.6519 0.275999H45.8399L43.3559 9.06Z" fill="white"/>
<path d="M10.8434 19.988V20.912C10.8434 21.592 10.8274 22.196 10.7954 22.724C10.7634 23.252 10.6874 23.852 10.5674 24.524H12.0554V25.496H7.81944V29.96H6.63144V25.496H2.45544V24.524H9.36744C9.51144 23.868 9.59944 23.276 9.63144 22.748C9.67144 22.22 9.69144 21.616 9.69144 20.936H3.63144V19.988H10.8434ZM21.9917 19.316V29.936H20.8757V24.428H19.6397V29.42H18.5237V19.532H19.6397V23.468H20.8757V19.316H21.9917ZM17.3957 20.492V27.164H13.3037V20.492H17.3957ZM14.3957 21.416V26.24H16.2917V21.416H14.3957ZM27.644 20.492V19.268H28.808V20.492H32.504V21.428H23.912V20.492H27.644ZM33.056 26.204V27.152H28.808V29.948H27.644V27.152H23.432V26.204H33.056ZM28.232 21.968C29.344 21.968 30.208 22.124 30.824 22.436C31.44 22.74 31.748 23.18 31.748 23.756C31.748 24.324 31.44 24.764 30.824 25.076C30.208 25.388 29.344 25.544 28.232 25.544C27.12 25.544 26.252 25.388 25.628 25.076C25.012 24.764 24.704 24.324 24.704 23.756C24.704 23.18 25.012 22.74 25.628 22.436C26.244 22.124 27.112 21.968 28.232 21.968ZM28.232 22.844C27.48 22.844 26.908 22.924 26.516 23.084C26.124 23.236 25.928 23.46 25.928 23.756C25.928 24.052 26.124 24.276 26.516 24.428C26.908 24.58 27.48 24.656 28.232 24.656C28.976 24.656 29.544 24.58 29.936 24.428C30.328 24.276 30.524 24.052 30.524 23.756C30.524 23.46 30.328 23.236 29.936 23.084C29.544 22.924 28.976 22.844 28.232 22.844ZM42.6683 19.316V29.936H41.4923V19.316H42.6683ZM39.5363 20.432C39.5363 22.096 39.1523 23.568 38.3843 24.848C37.6163 26.12 36.3603 27.18 34.6163 28.028L34.0043 27.092C35.3803 26.428 36.4163 25.628 37.1123 24.692C37.8083 23.748 38.2123 22.648 38.3243 21.392H34.5083V20.432H39.5363Z" fill="#AAAAAA"/>
</svg>
