<svg width="40" height="40" viewBox="0 0 40 40" fill="none" xmlns="http://www.w3.org/2000/svg">
<circle cx="20" cy="20" r="20" fill="white"/>
<path d="M22.1706 28.8905C26.3536 28.6125 29.6856 25.2332 29.9598 20.9909C30.0134 20.1607 30.0134 19.3009 29.9598 18.4707C29.6856 14.2284 26.3536 10.8491 22.1706 10.5711C20.7435 10.4762 19.2536 10.4764 17.8294 10.5711C13.6464 10.8491 10.3144 14.2284 10.0402 18.4707C9.98659 19.3009 9.98659 20.1607 10.0402 20.9909C10.1401 22.536 10.8234 23.9666 11.6279 25.1746C12.095 26.0203 11.7867 27.0758 11.3002 27.9978C10.9494 28.6626 10.774 28.995 10.9148 29.2351C11.0557 29.4752 11.3703 29.4829 11.9994 29.4982C13.2437 29.5285 14.0827 29.1757 14.7487 28.6846C15.1264 28.4061 15.3153 28.2668 15.4454 28.2508C15.5756 28.2348 15.8318 28.3403 16.344 28.5513C16.8044 28.7409 17.339 28.8579 17.8294 28.8905C19.2536 28.9852 20.7435 28.9854 22.1706 28.8905Z" stroke="#141B34" stroke-width="1.5" stroke-linejoin="round"/>
<path d="M19.9953 20H20.0042M23.9908 20H23.9998M15.9998 20H16.0087" stroke="#141B34" stroke-width="2" stroke-linecap="round" stroke-linejoin="round"/>
</svg>
