<svg width="41" height="30" viewBox="0 0 41 30" fill="none" xmlns="http://www.w3.org/2000/svg">
<path d="M14.8653 6.516C15.0093 6.284 15.1253 5.996 15.2133 5.652C15.3093 5.308 15.3573 4.984 15.3573 4.68C15.3573 3.992 15.2213 3.384 14.9493 2.856C14.6773 2.328 14.2973 1.92 13.8093 1.632C13.3293 1.336 12.7733 1.188 12.1413 1.188C11.5093 1.188 10.9493 1.336 10.4613 1.632C9.97333 1.92 9.59333 2.328 9.32133 2.856C9.05733 3.384 8.92533 3.992 8.92533 4.68C8.92533 5.36 9.05733 5.964 9.32133 6.492C9.59333 7.02 9.97333 7.432 10.4613 7.728C10.9493 8.016 11.5093 8.16 12.1413 8.16C12.5013 8.16 12.8693 8.088 13.2453 7.944C13.6213 7.8 13.9333 7.612 14.1813 7.38L12.9813 6.12L13.7733 5.364L14.8653 6.516ZM15.8373 9.132L14.9013 8.136C14.5813 8.432 14.1613 8.676 13.6413 8.868C13.1293 9.06 12.6293 9.156 12.1413 9.156C11.3013 9.156 10.5493 8.968 9.88533 8.592C9.22933 8.208 8.71333 7.676 8.33733 6.996C7.96933 6.316 7.78533 5.544 7.78533 4.68C7.78533 3.808 7.96933 3.032 8.33733 2.352C8.70533 1.672 9.22133 1.144 9.88533 0.767999C10.5493 0.384 11.3013 0.192 12.1413 0.192C12.9813 0.192 13.7333 0.384 14.3973 0.767999C15.0613 1.144 15.5773 1.672 15.9453 2.352C16.3133 3.032 16.4973 3.808 16.4973 4.68C16.4893 5.128 16.4093 5.604 16.2573 6.108C16.1053 6.604 15.9093 7.024 15.6693 7.368L16.6293 8.376L15.8373 9.132ZM23.9698 9.06L23.2018 8.196C22.4738 8.868 21.6578 9.204 20.7538 9.204C19.9458 9.204 19.3298 9.036 18.9058 8.7C18.4898 8.356 18.2178 7.996 18.0898 7.62C17.9698 7.236 17.9098 6.916 17.9098 6.66C17.9098 6.484 17.9458 6.252 18.0178 5.964C18.0978 5.676 18.2498 5.36 18.4738 5.016C18.6978 4.672 19.0178 4.368 19.4338 4.104C19.1538 3.824 18.9338 3.552 18.7738 3.288C18.6138 3.016 18.5338 2.696 18.5338 2.328C18.5338 2.024 18.6178 1.708 18.7858 1.38C18.9538 1.044 19.2058 0.763999 19.5418 0.539999C19.8778 0.316 20.2818 0.204 20.7538 0.204C21.2178 0.204 21.6178 0.312 21.9538 0.528C22.2978 0.744 22.5578 1.016 22.7338 1.344C22.9178 1.672 23.0098 2 23.0098 2.328C23.0098 2.76 22.8738 3.144 22.6018 3.48C22.3298 3.808 21.9218 4.124 21.3778 4.428L23.1658 6.42C23.3338 6.164 23.5898 5.708 23.9338 5.052L24.9658 5.604C24.7738 5.98 24.6058 6.296 24.4618 6.552C24.3258 6.8 24.1658 7.052 23.9818 7.308L25.5778 9.06H23.9698ZM19.0858 6.66C19.0858 6.956 19.1938 7.26 19.4098 7.572C19.6338 7.876 20.0818 8.028 20.7538 8.028C21.3618 8.028 21.9098 7.796 22.3978 7.332L20.2738 4.98C19.8178 5.212 19.5058 5.496 19.3378 5.832C19.1698 6.16 19.0858 6.436 19.0858 6.66ZM19.7098 2.328C19.7098 2.504 19.7578 2.66 19.8538 2.796C19.9498 2.924 20.1098 3.096 20.3338 3.312L20.5738 3.54C21.0298 3.316 21.3538 3.116 21.5458 2.94C21.7378 2.756 21.8338 2.552 21.8338 2.328C21.8338 2.072 21.7418 1.852 21.5578 1.668C21.3738 1.476 21.1058 1.38 20.7538 1.38C20.3938 1.38 20.1298 1.476 19.9618 1.668C19.7938 1.852 19.7098 2.072 19.7098 2.328ZM34.3602 9.06H33.1482L32.2362 6.624H28.5162L27.5802 9.06H26.3682L29.7162 0.275999H31.0602L34.3602 9.06ZM31.8522 5.628L30.3882 1.716L28.8882 5.628H31.8522Z" fill="white"/>
<path d="M4.11544 19.88V21.008C4.11544 21.712 4.33944 22.356 4.78744 22.94C5.23544 23.516 5.84744 23.936 6.62344 24.2L6.01144 25.112C5.45144 24.92 4.95944 24.632 4.53544 24.248C4.11944 23.856 3.79144 23.4 3.55144 22.88C3.32744 23.472 2.99544 23.988 2.55544 24.428C2.12344 24.868 1.60344 25.2 0.995438 25.424L0.359438 24.488C1.17544 24.2 1.81144 23.732 2.26744 23.084C2.72344 22.428 2.95144 21.704 2.95144 20.912V19.88H4.11544ZM8.73544 19.316V21.956H10.2474V22.94H8.73544V25.7H7.55944V19.316H8.73544ZM5.32744 25.976C6.42344 25.976 7.28344 26.148 7.90744 26.492C8.53944 26.836 8.85544 27.32 8.85544 27.944C8.85544 28.568 8.53944 29.052 7.90744 29.396C7.28344 29.748 6.42344 29.924 5.32744 29.924C4.23144 29.924 3.36744 29.748 2.73544 29.396C2.11144 29.052 1.79944 28.568 1.79944 27.944C1.79944 27.32 2.11144 26.836 2.73544 26.492C3.36744 26.148 4.23144 25.976 5.32744 25.976ZM5.32744 26.888C4.58344 26.888 3.99944 26.98 3.57544 27.164C3.15944 27.348 2.95144 27.608 2.95144 27.944C2.95144 28.288 3.15944 28.552 3.57544 28.736C3.99144 28.92 4.57544 29.012 5.32744 29.012C6.07144 29.012 6.65144 28.92 7.06744 28.736C7.48344 28.552 7.69144 28.288 7.69144 27.944C7.69144 27.608 7.48344 27.348 7.06744 27.164C6.65144 26.98 6.07144 26.888 5.32744 26.888ZM20.5317 24.38V25.328H16.3197V26.432H19.3677V29.804H12.0957V26.432H15.1557V25.328H10.9437V24.38H20.5317ZM19.6437 19.64V20.588H18.1317V22.58H19.5837V23.528H11.8677V22.58H13.3197V20.588H11.8077V19.64H19.6437ZM13.2477 27.368V28.868H18.2157V27.368H13.2477ZM16.9677 22.58V20.588H14.5077V22.58H16.9677ZM31.044 24.692V25.628H26.916V27.644H25.728V25.628H21.42V24.692H31.044ZM29.808 19.796V23.612H22.644V19.796H29.808ZM23.796 20.732V22.664H28.644V20.732H23.796ZM23.784 26.66V28.772H29.976V29.732H22.608V26.66H23.784ZM35.3403 20.06C35.8843 20.06 36.3723 20.168 36.8043 20.384C37.2443 20.6 37.5883 20.904 37.8363 21.296C38.0843 21.68 38.2083 22.116 38.2083 22.604C38.2083 23.1 38.0843 23.54 37.8363 23.924C37.5883 24.308 37.2443 24.608 36.8043 24.824C36.3723 25.04 35.8843 25.148 35.3403 25.148C34.7883 25.148 34.2923 25.04 33.8523 24.824C33.4203 24.608 33.0803 24.308 32.8323 23.924C32.5843 23.54 32.4603 23.1 32.4603 22.604C32.4603 22.116 32.5843 21.68 32.8323 21.296C33.0803 20.904 33.4203 20.6 33.8523 20.384C34.2923 20.168 34.7883 20.06 35.3403 20.06ZM35.3403 21.08C34.8363 21.08 34.4203 21.22 34.0923 21.5C33.7723 21.772 33.6123 22.14 33.6123 22.604C33.6123 23.06 33.7723 23.432 34.0923 23.72C34.4203 24 34.8363 24.14 35.3403 24.14C35.8363 24.14 36.2443 24 36.5643 23.72C36.8923 23.432 37.0563 23.06 37.0563 22.604C37.0563 22.14 36.8963 21.772 36.5763 21.5C36.2563 21.22 35.8443 21.08 35.3403 21.08ZM40.6323 19.304V29.948H39.4563V19.304H40.6323ZM31.9563 26.72C33.3003 26.72 34.5243 26.7 35.6283 26.66C36.7403 26.612 37.8003 26.512 38.8083 26.36L38.8923 27.212C37.8523 27.412 36.7843 27.544 35.6883 27.608C34.5923 27.664 33.3963 27.692 32.1003 27.692L31.9563 26.72Z" fill="#AAAAAA"/>
</svg>
