<svg width="40" height="40" viewBox="0 0 40 40" fill="none" xmlns="http://www.w3.org/2000/svg">
<circle cx="20" cy="20" r="20" fill="white"/>
<path d="M25 14C27.3456 14 28.0184 14 28.8263 14.6199C29.0343 14.7795 29.2205 14.9657 29.3801 15.1737C30 15.9816 30 17.1544 30 19.5V24C30 26.8284 30 28.2426 29.1213 29.1213C28.2426 30 26.8284 30 24 30H16C13.1716 30 11.7574 30 10.8787 29.1213C10 28.2426 10 26.8284 10 24V19.5C10 17.1544 10 15.9816 10.6199 15.1737C10.7795 14.9657 10.9657 14.7795 11.1737 14.6199C11.9816 14 12.6544 14 15 14" stroke="#141B34" stroke-width="1.5" stroke-linecap="round"/>
<path d="M25 15L24.1142 12.7854C23.732 11.83 23.3994 10.7461 22.4166 10.2596C21.8924 10 21.2616 10 20 10C18.7384 10 18.1076 10 17.5834 10.2596C16.6006 10.7461 16.268 11.83 15.8858 12.7854L15 15" stroke="#141B34" stroke-width="1.5" stroke-linecap="round" stroke-linejoin="round"/>
<path d="M23.5 22C23.5 23.933 21.933 25.5 20 25.5C18.067 25.5 16.5 23.933 16.5 22C16.5 20.067 18.067 18.5 20 18.5C21.933 18.5 23.5 20.067 23.5 22Z" stroke="#141B34" stroke-width="1.5"/>
<path d="M19.9998 14H20.0088" stroke="#141B34" stroke-width="2" stroke-linecap="round" stroke-linejoin="round"/>
</svg>
