<svg width="42" height="30" viewBox="0 0 42 30" fill="none" xmlns="http://www.w3.org/2000/svg">
<path d="M5.64523 8.16C6.27723 8.16 6.83324 8.016 7.31324 7.728C7.80123 7.432 8.18123 7.02 8.45323 6.492C8.72523 5.964 8.86123 5.356 8.86123 4.668C8.86123 3.98 8.72523 3.372 8.45323 2.844C8.18123 2.316 7.80123 1.908 7.31324 1.62C6.83324 1.324 6.27723 1.176 5.64523 1.176C5.01323 1.176 4.45323 1.324 3.96523 1.62C3.47723 1.908 3.09723 2.316 2.82523 2.844C2.56123 3.372 2.42923 3.98 2.42923 4.668C2.42923 5.356 2.56123 5.964 2.82523 6.492C3.09723 7.02 3.47723 7.432 3.96523 7.728C4.45323 8.016 5.01323 8.16 5.64523 8.16ZM5.64523 0.18C6.48523 0.18 7.23723 0.372 7.90123 0.756C8.56523 1.132 9.08123 1.66 9.44923 2.34C9.81723 3.02 10.0012 3.796 10.0012 4.668C10.0012 5.54 9.81723 6.316 9.44923 6.996C9.08123 7.676 8.56523 8.208 7.90123 8.592C7.23723 8.968 6.48523 9.156 5.64523 9.156C4.80523 9.156 4.05323 8.968 3.38923 8.592C2.72523 8.208 2.20923 7.676 1.84123 6.996C1.47323 6.316 1.28923 5.54 1.28923 4.668C1.28923 3.796 1.47323 3.02 1.84123 2.34C2.20923 1.66 2.72523 1.132 3.38923 0.756C4.05323 0.372 4.80523 0.18 5.64523 0.18ZM14.6417 4.656C15.1457 4.656 15.5497 4.5 15.8537 4.188C16.1657 3.876 16.3217 3.464 16.3217 2.952C16.3217 2.448 16.1657 2.044 15.8537 1.74C15.5497 1.428 15.1457 1.272 14.6417 1.272H12.6497V4.656H14.6417ZM16.5017 9.06L14.1857 5.652H12.6497V9.06H11.5217V0.275999H14.7377C15.2737 0.275999 15.7457 0.387999 16.1537 0.611999C16.5697 0.836 16.8897 1.152 17.1137 1.56C17.3457 1.968 17.4617 2.436 17.4617 2.964C17.4617 3.556 17.2857 4.08 16.9337 4.536C16.5897 4.992 16.1017 5.316 15.4697 5.508L17.8817 9.06H16.5017ZM22.1374 8.064C22.7774 8.064 23.3454 7.924 23.8414 7.644C24.3374 7.356 24.7214 6.956 24.9934 6.444C25.2734 5.924 25.4134 5.332 25.4134 4.668C25.4134 4.004 25.2734 3.416 24.9934 2.904C24.7214 2.384 24.3374 1.984 23.8414 1.704C23.3454 1.416 22.7774 1.272 22.1374 1.272L20.8294 1.284V8.052L22.1374 8.064ZM22.1494 0.275999C22.9974 0.275999 23.7534 0.464 24.4174 0.84C25.0814 1.208 25.5974 1.728 25.9654 2.4C26.3414 3.064 26.5294 3.82 26.5294 4.668C26.5294 5.516 26.3414 6.276 25.9654 6.948C25.5974 7.612 25.0814 8.132 24.4174 8.508C23.7534 8.876 22.9974 9.06 22.1494 9.06H19.7014V0.275999H22.1494ZM33.4817 1.272H29.0057V4.044H32.8577V5.028H29.0057V8.064H33.4817V9.06H27.8777V0.275999H33.4817V1.272ZM38.4659 4.656C38.9699 4.656 39.3739 4.5 39.6779 4.188C39.9899 3.876 40.1459 3.464 40.1459 2.952C40.1459 2.448 39.9899 2.044 39.6779 1.74C39.3739 1.428 38.9699 1.272 38.4659 1.272H36.4739V4.656H38.4659ZM40.3259 9.06L38.0099 5.652H36.4739V9.06H35.3459V0.275999H38.5619C39.0979 0.275999 39.5699 0.387999 39.9779 0.611999C40.3939 0.836 40.7139 1.152 40.9379 1.56C41.1699 1.968 41.2859 2.436 41.2859 2.964C41.2859 3.556 41.1099 4.08 40.7579 4.536C40.4139 4.992 39.9259 5.316 39.2939 5.508L41.7059 9.06H40.3259Z" fill="white"/>
<path d="M10.5554 25.304V26.264H6.31944V29.948H5.14344V26.264H0.955438V25.304H10.5554ZM9.65544 19.94V20.888H6.42744C6.44344 21.304 6.61144 21.7 6.93144 22.076C7.25144 22.452 7.68344 22.776 8.22744 23.048C8.77144 23.312 9.37144 23.488 10.0274 23.576L9.58344 24.524C8.71144 24.388 7.93544 24.116 7.25544 23.708C6.57544 23.292 6.07544 22.788 5.75544 22.196C5.44344 22.788 4.94744 23.292 4.26744 23.708C3.58744 24.116 2.80744 24.388 1.92744 24.524L1.48344 23.576C2.13944 23.488 2.73944 23.312 3.28344 23.048C3.82744 22.776 4.25944 22.452 4.57944 22.076C4.90744 21.7 5.07944 21.304 5.09544 20.888H1.84344V19.94H9.65544ZM21.0557 24.692V25.628H16.9277V27.644H15.7397V25.628H11.4317V24.692H21.0557ZM19.8197 19.796V23.612H12.6557V19.796H19.8197ZM13.8077 20.732V22.664H18.6557V20.732H13.8077ZM13.7957 26.66V28.772H19.9877V29.732H12.6197V26.66H13.7957ZM26.156 27.644V25.16H27.332V27.644H31.556V28.616H21.932V27.644H26.156ZM30.728 20.216V21.176H27.344V21.224C27.344 21.744 27.516 22.244 27.86 22.724C28.204 23.204 28.668 23.612 29.252 23.948C29.836 24.276 30.468 24.492 31.148 24.596L30.68 25.52C29.8 25.352 29.008 25.036 28.304 24.572C27.6 24.1 27.08 23.528 26.744 22.856C26.408 23.536 25.888 24.116 25.184 24.596C24.488 25.076 23.708 25.4 22.844 25.568L22.364 24.632C23.036 24.528 23.66 24.308 24.236 23.972C24.812 23.628 25.268 23.216 25.604 22.736C25.948 22.248 26.12 21.744 26.12 21.224V21.176H22.736V20.216H30.728ZM41.1323 19.316V29.936H39.9563V19.316H41.1323ZM32.4683 27.032C33.6843 27.032 34.6283 27.024 35.3003 27.008V25.952C34.6923 25.864 34.2083 25.648 33.8483 25.304C33.4963 24.96 33.3203 24.532 33.3203 24.02C33.3203 23.628 33.4283 23.284 33.6443 22.988C33.8603 22.684 34.1603 22.452 34.5443 22.292C34.9363 22.124 35.3843 22.04 35.8883 22.04C36.3923 22.04 36.8403 22.124 37.2323 22.292C37.6323 22.452 37.9403 22.684 38.1563 22.988C38.3723 23.284 38.4803 23.628 38.4803 24.02C38.4803 24.532 38.3003 24.96 37.9403 25.304C37.5803 25.64 37.0963 25.852 36.4883 25.94V26.96C37.5843 26.904 38.5323 26.824 39.3323 26.72L39.4043 27.572C38.3803 27.756 37.3283 27.876 36.2483 27.932C35.1683 27.98 33.9563 28.004 32.6123 28.004L32.4683 27.032ZM35.3003 20.564V19.34H36.4883V20.564H39.1163V21.5H32.6843V20.564H35.3003ZM35.8883 22.94C35.4563 22.94 35.1043 23.04 34.8323 23.24C34.5603 23.432 34.4243 23.692 34.4243 24.02C34.4243 24.348 34.5603 24.608 34.8323 24.8C35.1043 24.992 35.4563 25.088 35.8883 25.088C36.3283 25.088 36.6843 24.992 36.9563 24.8C37.2283 24.608 37.3643 24.348 37.3643 24.02C37.3643 23.684 37.2283 23.42 36.9563 23.228C36.6843 23.036 36.3283 22.94 35.8883 22.94Z" fill="#AAAAAA"/>
</svg>
